<?xml version="1.0" encoding="UTF-8"?>
<svg version="1.1" xmlns="http://www.w3.org/2000/svg" width="512" height="512">
<path d="M0 0 C5.03136466 2.92493208 8.65898184 4.53933878 14.46875 3.09692383 C16.4773226 2.49199257 18.47502346 1.85802788 20.47314453 1.21948242 C48.48511007 -7.55627628 82.10554555 -0.82680574 107.60986328 12.25854492 C132.46468997 26.2547654 149.01668495 48.77045727 156.85986328 75.94604492 C163.14129461 99.63518362 162.3718261 123.81334655 153.94580078 146.84448242 C152.50319797 150.81476436 152.50319797 150.81476436 151.85986328 154.94604492 C153.21616903 156.84270398 153.21616903 156.84270398 155.29736328 158.44604492 C167.88919661 170.20135785 174.09030861 187.76742125 175.07861328 204.69213867 C175.69814142 223.85558798 170.09419709 240.80141302 156.85986328 254.94604492 C146.81675966 265.22490215 135.18025371 272.61788875 121.85986328 277.94604492 C120.97427734 278.3044043 120.08869141 278.66276367 119.17626953 279.03198242 C109.99576954 282.418963 100.50914157 283.65753688 90.85986328 284.94604492 C90.10898437 285.05190918 89.35810547 285.15777344 88.58447266 285.2668457 C58.46921365 289.46727197 29.35010972 286.61898928 2.01391602 272.89282227 C1.25409424 272.51206543 0.49427246 272.13130859 -0.28857422 271.73901367 C-0.96065918 271.39378662 -1.63274414 271.04855957 -2.32519531 270.69287109 C-4.27542242 269.75577952 -4.27542242 269.75577952 -7.14013672 269.94604492 C-8.91247922 271.54475157 -8.91247922 271.54475157 -10.76513672 273.69604492 C-37.18521145 300.92970381 -77.49492312 314.30188786 -114.68310547 315.22949219 C-155.11290652 315.67365267 -194.57712094 301.48502173 -224.01513672 273.57104492 C-230.93512532 266.3887827 -235.74218725 259.23467043 -237.45263672 249.32104492 C-238.72144404 242.72637969 -241.63635059 239.93289619 -246.50732422 235.51635742 C-257.73469445 224.5555123 -263.04030389 207.29616902 -263.43286133 191.88256836 C-263.61659297 170.98706373 -257.29870028 152.62732165 -242.609375 137.38745117 C-227.39185077 122.4581951 -204.35083436 112.0083884 -183.03369141 111.93920898 C-175.80844199 112.09335638 -169.04648285 112.77446186 -162.14013672 114.94604492 C-162.19234375 113.29282227 -162.19234375 113.29282227 -162.24560547 111.60620117 C-162.97454005 78.50226292 -150.80973543 49.45980435 -128.36669922 25.24291992 C-96.78253376 -7.33864024 -41.30262208 -24.80850719 0 0 Z M-117.61279297 33.60864258 C-137.59823343 57.31752852 -146.27510082 89.68628909 -145.11791992 120.31323242 C-144.99573367 124.06792344 -145.01931282 126.76068296 -147.14013672 129.94604492 C-151.7093943 130.34337167 -154.7724017 129.86094876 -159.01513672 128.07104492 C-173.95983593 121.77148561 -190.03506576 122.35402523 -205.14013672 127.94604492 C-221.06027857 134.85850247 -232.26123451 146.0872853 -239.07373047 162.02807617 C-244.90585697 177.98631242 -244.2100959 192.96728125 -237.63232422 208.50854492 C-233.43853206 216.77909318 -227.98047258 223.76378692 -220.95654297 229.83276367 C-218.61425015 232.55788284 -218.34138105 234.67176799 -217.76513672 238.19604492 C-215.47484495 249.04160646 -209.09307309 254.81404592 -200.14013672 260.94604492 C-164.7703125 283.41020496 -124.35455132 295.70137333 -82.38427734 286.48950195 C-56.13171293 280.13199451 -33.97014408 265.98043373 -14.26904297 247.82885742 C-9.84221653 243.91375587 -9.84221653 243.91375587 -5.82763672 244.09838867 C-1.89483869 245.00243229 0.51439549 246.28258914 3.85986328 248.50854492 C4.99961278 249.24111066 6.14163101 249.97015612 7.28564453 250.69604492 C7.87297363 251.06987305 8.46030273 251.44370117 9.06542969 251.82885742 C37.04350739 269.24758988 70.99736463 278.57313697 103.68017578 271.46264648 C118.85581545 267.8659111 132.19234766 261.33053477 143.85986328 250.94604492 C144.56884766 250.31956055 145.27783203 249.69307617 146.00830078 249.04760742 C156.83530829 238.88432451 162.74941036 226.54810694 163.38134766 211.71337891 C163.62085382 196.64872661 159.90274319 180.75125191 149.38867188 169.35083008 C147.26094646 167.19085662 145.11004168 165.07314948 142.85961914 163.04077148 C140.59823525 160.95735513 138.99730269 159.29860689 137.87158203 156.41088867 C137.8570349 153.35114284 138.63875415 151.65586189 140.04736328 148.94604492 C151.51689922 125.21047749 151.89135898 97.65242408 143.53955078 72.85229492 C138.27530555 58.3935355 130.73264755 46.70884438 119.85986328 35.94604492 C119.15345703 35.21772461 118.44705078 34.4894043 117.71923828 33.73901367 C98.80428735 15.43771573 71.18296154 9.44990503 45.75561523 9.58789062 C34.18290044 9.83443294 22.97793817 11.49444601 12.03564453 15.39526367 C8.03299324 16.40850215 5.01428912 16.56328031 1.32470703 14.59057617 C0.49068359 13.98600586 -0.34333984 13.38143555 -1.20263672 12.75854492 C-38.26721089 -12.03464996 -89.60229872 1.98538895 -117.61279297 33.60864258 Z " fill="#000000" transform="translate(300.14013671875,104.053955078125)"/>
</svg>
