<?xml version="1.0" encoding="UTF-8"?>
<svg version="1.1" xmlns="http://www.w3.org/2000/svg" width="512" height="512">
<path d="M0 0 C0.66128906 0.55945313 1.32257813 1.11890625 2.00390625 1.6953125 C13.09124196 11.93373387 20.4384168 25.80840783 25 40 C25.47308594 39.62488281 25.94617188 39.24976563 26.43359375 38.86328125 C36.54128309 31.0411513 46.83620738 25.38015636 60 27 C75.54662557 30.30316345 89.46622009 39.72116488 98.62890625 52.77734375 C105.1201658 63.3002118 109.00778337 73.69651378 110 86 C111.11375 85.505 111.11375 85.505 112.25 85 C121.65610102 82.49170639 130.33412266 83.70044298 139 88 C144.91881077 91.46717165 149.56134927 96.04259237 153 102 C153.26039063 103.03125 153.52078125 104.0625 153.7890625 105.125 C154.72031722 108.23598807 154.72031722 108.23598807 157.6875 109.25 C159.3271875 109.62125 159.3271875 109.62125 161 110 C173.57052274 113.38170623 183.26148471 120.60631523 189.9296875 131.8671875 C191.09871157 134.19670262 191.98392531 136.5514166 192.875 139 C194.6026091 143.592912 196.98922891 146.52041229 200.32421875 150.0625 C202.91057434 153.05278525 204.53531826 156.34870807 206 160 C206.53560547 161.33224609 206.53560547 161.33224609 207.08203125 162.69140625 C209.45913418 171.25909211 209.74885593 183.22917115 205.31640625 191.12109375 C195.32724964 205.37861402 180.99173753 210.23041955 164.47583008 213.41333008 C131.74644433 218.82684001 97.51247234 214.29994664 64.84561157 210.9050293 C-0.28930595 204.14900545 -65.91737019 207.03695718 -131.1875 209.98828125 C-132.15508492 210.03198978 -133.12266983 210.07569832 -134.1195755 210.12073135 C-145.63487169 210.64159103 -157.1495193 211.17458937 -168.66363144 211.72097206 C-175.80448281 212.05722217 -182.94647173 212.35977186 -190.08929825 212.65077782 C-195.42911793 212.8736152 -200.76281194 213.15246024 -206.09777451 213.47052479 C-209.60949058 213.67218575 -213.12236496 213.83773849 -216.63626862 213.9961834 C-218.26757228 214.0775483 -219.89822197 214.17382905 -221.52761078 214.28724861 C-235.41746982 215.24243787 -245.00744948 211.40839852 -256.81719971 204.3056488 C-259.28101748 202.83190852 -261.75024182 201.88132414 -264.4375 200.875 C-280.36799819 194.34192623 -295.51460825 183.22856091 -302.9375 167.3125 C-305.38816092 159.77671766 -305.37700864 150.22973359 -302.25 142.9375 C-301.53823548 141.60387805 -300.79089889 140.28826829 -300 139 C-299.0409375 137.4221875 -299.0409375 137.4221875 -298.0625 135.8125 C-297.0415625 134.4203125 -297.0415625 134.4203125 -296 133 C-295.01 131.6078125 -295.01 131.6078125 -294 130.1875 C-278.63757457 112.35027656 -252.20570903 104.41691615 -229.43359375 102.59765625 C-225.62436118 102.3345797 -221.81536236 102.14713498 -218 102 C-218.4846875 100.87464844 -218.969375 99.74929688 -219.46875 98.58984375 C-224.68562657 84.58486791 -220.880656 67.78940288 -214.92675781 54.62744141 C-206.45648459 36.86251164 -195.23228734 20.64471585 -181 7 C-179.81083984 5.79730469 -179.81083984 5.79730469 -178.59765625 4.5703125 C-169.71839044 -4.21548735 -160.00575672 -10.28333233 -149 -16 C-148.06414062 -16.495 -147.12828125 -16.99 -146.1640625 -17.5 C-100.647894 -39.90795988 -38.42675877 -32.74819901 0 0 Z M-171 10 C-171.639375 10.55558594 -172.27875 11.11117187 -172.9375 11.68359375 C-191.17466712 28.74294383 -211.21883642 57.60541011 -212.25 83.25 C-212.20054614 89.07566523 -210.60326639 94.79346721 -208 100 C-207.93003986 101.70702735 -207.91559846 103.41668003 -207.9375 105.125 C-207.94652344 106.03507812 -207.95554687 106.94515625 -207.96484375 107.8828125 C-207.97644531 108.58148438 -207.98804688 109.28015625 -208 110 C-210.96313975 110.82927025 -213.75608117 111.19931037 -216.82421875 111.39453125 C-241.85787501 113.15991794 -268.01781764 117.88175919 -286 137 C-292.37274697 145.21276546 -294.16292867 153.70323576 -293 164 C-289.42580155 175.52040751 -280.29398799 182.52113652 -270 188 C-260.7311042 192.86523357 -253.11087964 193.56141334 -242.79296875 192.96875 C-241.24247204 192.90072526 -239.69186073 192.83527485 -238.14115906 192.77209473 C-234.67829097 192.62580492 -231.21680052 192.46199829 -227.75531006 192.28613281 C-221.56818679 191.97344734 -215.37935861 191.70803908 -209.18994141 191.4453125 C-199.65193303 191.03716095 -190.1146278 190.61532642 -180.57763672 190.18408203 C-101.46530726 186.61788319 -101.46530726 186.61788319 -64.56075668 186.15267944 C-62.43172008 186.12571828 -60.30273309 186.09610165 -58.17373657 186.06616211 C-29.33557585 185.67873054 -0.49797373 186.25890603 28.25241089 188.61413574 C31.58957513 188.88745521 34.92755653 189.14833135 38.26586914 189.40722656 C48.36941232 190.19629922 58.46818576 191.03032903 68.5625 191.9296875 C125.48194242 198.13942333 125.48194242 198.13942333 176.875 178.25 C182.12212533 173.34588463 185.28032983 167.19670167 186 160 C186.06316406 159.37996094 186.12632812 158.75992188 186.19140625 158.12109375 C186.69954161 148.95826583 183.61586269 139.91188891 177.74609375 132.87109375 C170.72478865 125.34714488 163.08255645 118.9560013 152.45703125 117.69921875 C150.07199773 117.64940346 150.07199773 117.64940346 147 118 C146.773125 117.05125 146.54625 116.1025 146.3125 115.125 C143.88484963 106.92752307 140.98344086 100.55501025 133.39453125 96.125 C127.42571963 93.32072961 122.234932 92.29125067 115.84375 94.21875 C113.6898041 95.0639779 113.6898041 95.0639779 110.8125 97.125 C107.81917106 99.12055262 106.51025923 99.68255041 103 99 C100.49744726 95.24617089 100.47743744 91.92771504 100.125 87.5625 C98.5970518 71.92129961 93.37592336 59.36468148 81.9296875 48.3359375 C71.78448106 40.24682623 60.89865009 36.89612959 48 38 C40.09069252 40.22846182 34.51873287 44.61747835 30.25 51.625 C29.36054687 53.06746094 29.36054687 53.06746094 28.453125 54.5390625 C27.59028852 56.00031784 26.75891422 57.48217156 26 59 C24.125 59.75 24.125 59.75 22 60 C19 58 19 58 18.078125 54.6484375 C17.79649105 53.22505343 17.52084673 51.80047604 17.25 50.375 C12.39172029 27.86895943 0.28050377 10.62902298 -19 -2 C-19.72445313 -2.50402344 -20.44890625 -3.00804687 -21.1953125 -3.52734375 C-65.07020505 -32.34412858 -132.58668343 -23.54496222 -171 10 Z " fill="#000000" transform="translate(304,163)"/>
</svg>
