<?xml version="1.0" encoding="UTF-8"?>
<svg version="1.1" xmlns="http://www.w3.org/2000/svg" width="512" height="512">
<path d="M0 0 C23.60994075 -0.63488916 47.16443463 5.72387401 64.66796875 22.015625 C67.33840959 24.62039926 69.55874359 27.00803726 71.63671875 30.125 C74.29360316 30.41020228 76.7886535 30.53596357 79.44921875 30.5625 C93.5958726 31.05876892 106.22677455 35.47163089 116.77734375 45.09375 C122.24649843 51.06845679 125.75784481 57.58024926 125.76953125 65.71484375 C125.77082031 66.58173828 125.77210938 67.44863281 125.7734375 68.34179688 C125.76957031 69.23962891 125.76570313 70.13746094 125.76171875 71.0625 C125.76558594 71.95646484 125.76945312 72.85042969 125.7734375 73.77148438 C125.76714105 78.01214097 125.72352978 81.99339297 124.63671875 86.125 C125.35472656 86.38152344 126.07273437 86.63804687 126.8125 86.90234375 C133.85865026 89.95275182 139.86778258 95.31460633 145.44921875 100.5 C149.24811718 104.02239633 153.18686285 106.96386688 157.44921875 109.875 C173.86759806 121.29006601 185.54638275 135.9327647 191.63671875 155.125 C192.00410156 156.20394531 192.00410156 156.20394531 192.37890625 157.3046875 C196.41683126 171.52039608 193.94507301 187.28819583 187.13671875 200.125 C176.52848613 218.47437533 152.64479146 228.61397596 133.15625 234.24609375 C117.16375472 238.23978014 100.50078969 240.30823401 84.28710938 236.53515625 C80.61350668 235.69424803 77.43139807 235.15569508 73.63671875 235.125 C70.45573688 237.17087832 68.7976251 239.27191915 66.625 242.3515625 C57.99240892 254.39309426 39.6547445 260.06490298 25.78759766 262.65771484 C8.92728261 265.15815208 -9.65858827 264.00387969 -25.48046875 257.42578125 C-30.42340981 255.54066447 -33.7149924 256.45115854 -38.5546875 258.4296875 C-39.66714844 258.94789063 -40.77960938 259.46609375 -41.92578125 260 C-60.65662622 268.21838543 -83.03432758 269.28986869 -102.36328125 262.125 C-112.84523312 257.88950841 -125.59121263 251.66151077 -132.60839844 242.49926758 C-135.31857546 240.37689884 -137.62776042 240.83977966 -141.015625 240.9375 C-141.67099747 240.94885986 -142.32636993 240.96021973 -143.00160217 240.97192383 C-145.79451626 241.02060604 -148.58608934 241.1038339 -151.37817383 241.18652344 C-168.61344517 241.65283907 -183.84163945 238.18055031 -197.05078125 226.375 C-199.03735551 224.46521769 -200.97750238 222.53276627 -202.87109375 220.53125 C-204.63330925 218.87052335 -206.50262009 217.66552278 -208.55078125 216.375 C-220.42260443 208.51184439 -227.74582425 199.10750219 -231.36328125 185.125 C-233.79722616 170.73452281 -231.22417438 158.44903759 -223.36328125 146.125 C-218.87667001 140.81374682 -213.81565988 136.41316967 -208.36328125 132.125 C-208.86988281 130.83529297 -208.86988281 130.83529297 -209.38671875 129.51953125 C-212.43908191 121.42988669 -214.53378169 113.7886621 -215.36328125 105.125 C-215.43546875 104.3825 -215.50765625 103.64 -215.58203125 102.875 C-216.41413807 84.56864994 -208.82940921 68.03373992 -197.08203125 54.49609375 C-185.06904236 41.72254225 -168.7777677 33.68016533 -151.1484375 32.88671875 C-130.35248437 32.39802376 -114.06979962 38.21174554 -98.36328125 52.125 C-95.63502919 48.77504448 -93.09130363 45.35033774 -90.61328125 41.8125 C-73.64117073 18.56133028 -45.81646966 6.33114289 -18.05078125 1.6484375 C-12.03174712 0.79404071 -6.06582062 0.32083679 0 0 Z M-78.55078125 44.3125 C-91.03952585 59.05793767 -96.5675524 76.8974844 -95.36328125 96.125 C-94.7658851 99.2842361 -94.01437425 102.32027434 -93.1171875 105.40625 C-92.30561723 108.33294901 -91.65839604 111.09903429 -91.36328125 114.125 C-92.02328125 115.115 -92.68328125 116.105 -93.36328125 117.125 C-95.67328125 116.795 -97.98328125 116.465 -100.36328125 116.125 C-101.01584581 114.41922658 -101.66001166 112.71023911 -102.30078125 111 C-102.84025391 109.57300781 -102.84025391 109.57300781 -103.390625 108.1171875 C-105.38431145 101.98399948 -105.5859682 96.01625355 -105.61328125 89.625 C-105.62355347 88.30411377 -105.62355347 88.30411377 -105.6340332 86.95654297 C-105.59183782 80.2358587 -104.58981952 74.49052548 -102.53125 68.0703125 C-102.05660513 64.91681662 -102.05660513 64.91681662 -104.4140625 62.02734375 C-114.24450805 51.69264306 -128.12650335 44.89282188 -142.3359375 43.921875 C-159.48038801 43.6617822 -174.79373337 48.95982531 -187.29907227 60.79272461 C-199.09031358 72.60402247 -203.61638411 86.34308167 -203.68676758 102.60009766 C-203.55809296 112.16947422 -201.60841306 120.97926522 -196.36328125 129.125 C-195.51765625 128.96386719 -194.67203125 128.80273438 -193.80078125 128.63671875 C-190.27545445 128.11192578 -186.92600855 127.9570325 -183.36328125 127.9375 C-181.59984375 127.91623047 -181.59984375 127.91623047 -179.80078125 127.89453125 C-176.3271431 128.1274229 -173.59876146 128.87716998 -170.36328125 130.125 C-169.73828125 132.4375 -169.73828125 132.4375 -169.36328125 135.125 C-170.02328125 136.115 -170.68328125 137.105 -171.36328125 138.125 C-174.21380826 138.24202164 -176.89989759 138.20522489 -179.73828125 138.0625 C-191.31448807 137.80545496 -200.14758758 140.0633718 -209.1015625 147.77734375 C-217.33407746 156.32266584 -220.77985953 165.30761919 -220.72900391 177.00976562 C-220.49268884 186.47104029 -216.91875904 194.32882432 -210.36328125 201.125 C-199.50039968 210.58812732 -186.63246434 214.34332575 -172.48828125 214.1875 C-171.31265625 214.18073242 -171.31265625 214.18073242 -170.11328125 214.17382812 C-168.19658111 214.16214093 -166.27992077 214.14420908 -164.36328125 214.125 C-164.36328125 210.39359901 -165.57658953 208.63405805 -167.36328125 205.375 C-169.84504125 200.57460037 -171.09231749 197.47126578 -170.36328125 192.125 C-167.39328125 192.125 -164.42328125 192.125 -161.36328125 192.125 C-161.09644531 192.99640625 -160.82960937 193.8678125 -160.5546875 194.765625 C-154.56543693 211.65334792 -140.93794252 224.62309425 -125.11328125 232.4375 C-105.92463886 240.64813482 -87.00903356 241.50184038 -67.40625 233.9921875 C-66.73207031 233.70601562 -66.05789062 233.41984375 -65.36328125 233.125 C-65.36328125 232.465 -65.36328125 231.805 -65.36328125 231.125 C-67.48000801 229.53218569 -69.60483482 228.0385971 -71.80078125 226.5625 C-86.07811819 216.69532613 -86.07811819 216.69532613 -89.36328125 210.125 C-89.48828125 207.0625 -89.48828125 207.0625 -89.36328125 204.125 C-88.36328125 203.125 -88.36328125 203.125 -85.61328125 202.75 C-82.0767738 203.15805855 -81.18331553 203.86379071 -78.87890625 206.4453125 C-63.6847798 223.28416398 -40.06468688 234.81743652 -17.36108398 236.25146484 C1.61910261 236.94713177 19.11442341 233.74366859 34.63671875 222.125 C35.23613281 221.67898438 35.83554687 221.23296875 36.453125 220.7734375 C39.38921915 218.46701173 41.10724607 216.49695372 42.63671875 213.125 C41.70730469 212.4959375 40.77789062 211.866875 39.8203125 211.21875 C22.97257435 199.63351264 22.97257435 199.63351264 20.63671875 191.75 C20.63671875 189.125 20.63671875 189.125 21.63671875 187.125 C24.76171875 186.6875 24.76171875 186.6875 28.63671875 187.125 C30.29173946 188.6200049 31.50669475 190.28220993 32.859375 192.0546875 C43.16955083 204.06434286 59.91724417 209.62113189 75.19921875 210.9375 C99.1857687 212.25833267 127.11330087 206.12725105 145.5625 190.05859375 C146.24699219 189.42050781 146.93148438 188.78242188 147.63671875 188.125 C148.29027344 187.53847656 148.94382812 186.95195312 149.6171875 186.34765625 C158.24645999 178.2335642 162.61289695 168.6626339 163.01171875 156.75 C162.35876848 138.36292029 153.3767106 123.33967591 140.30322266 110.86889648 C131.12204463 101.46745032 131.12204463 101.46745032 119.63671875 97.125 C117.84922742 99.48393968 117.84922742 99.48393968 116.19921875 102.4375 C112.3297277 109.05978335 112.3297277 109.05978335 108.63671875 111.125 C104.88671875 110.8125 104.88671875 110.8125 101.63671875 110.125 C101.09876401 106.43616746 100.79335937 104.27271221 103.0546875 101.1953125 C104.30496049 99.86773052 105.56040828 98.54500773 106.8203125 97.2265625 C113.87003549 89.07010881 115.13319557 77.8205166 114.9453125 67.46484375 C114.28471472 60.31533616 110.84088882 55.5599336 105.6875 50.7265625 C95.90469677 43.08665902 84.76773193 41.05660531 72.63671875 42.125 C61.23690506 44.19206719 52.75476844 48.59449009 44.88671875 57.0625 C42.46142407 59.61966649 41.96298839 60.06959572 38.32421875 60.6875 C35.63671875 60.125 35.63671875 60.125 33.63671875 58.125 C33.7361827 53.74858621 34.98054256 50.9373289 37.9296875 47.69921875 C44.02462562 42.07848634 50.94395926 38.11662869 58.63671875 35.125 C58.10621838 31.20277596 56.48496558 29.74406883 53.44921875 27.3125 C14.94756854 -1.93132767 -46.57842344 10.85593216 -78.55078125 44.3125 Z " fill="#000000" transform="translate(286.36328125,212.875)"/>
<path d="M0 0 C2.875 2.75 2.875 2.75 3.875 4.75 C6.02918307 5.12283938 8.20067535 5.39734635 10.375 5.625 C20.68250312 6.99445528 27.64370296 10.19542145 34.875 17.75 C38.45699217 22.71856978 39.01486147 26.82638248 39 32.875 C39.00257813 33.92945313 39.00515625 34.98390625 39.0078125 36.0703125 C38.875 38.75 38.875 38.75 37.875 40.75 C38.93654297 41.10191406 38.93654297 41.10191406 40.01953125 41.4609375 C43.40483013 42.9891846 45.75093087 44.95006855 48.5625 47.375 C49.62276854 48.28363768 50.68398066 49.19117537 51.74609375 50.09765625 C52.27187012 50.5477002 52.79764648 50.99774414 53.33935547 51.46142578 C55.5478755 53.31461636 57.8389291 55.05643008 60.125 56.8125 C69.65905608 64.48252589 77.76565603 74.27735741 79.875 86.75 C81.01352487 104.87307629 81.01352487 104.87307629 75.875 112.75 C75.47410156 113.43191406 75.07320313 114.11382812 74.66015625 114.81640625 C66.69664751 126.98095439 50.00949705 133.02093059 36.3515625 136.02734375 C26.10424356 137.92764647 14.7965352 138.07937423 4.875 134.75 C4.62492188 135.33910156 4.37484375 135.92820313 4.1171875 136.53515625 C-0.23335359 144.29225309 -10.08722184 148.1351785 -18.125 150.75 C-29.76076337 153.97147168 -43.65744293 153.77363335 -54.94921875 149.2734375 C-59.76805527 148.11414828 -64.31771359 150.08208471 -68.8125 151.75 C-82.50444978 156.36450706 -96.18105778 155.16352081 -109.36328125 149.25 C-112.96949893 147.29131883 -116.07208544 144.96186452 -119.1875 142.30078125 C-123.93302786 138.50244545 -127.68432373 138.63318894 -133.625 138.875 C-145.03627649 139.07764833 -153.4906837 136.70641084 -162.48046875 129.43359375 C-164.125 127.75 -164.125 127.75 -165.125 124.75 C-166.1459375 124.37875 -166.1459375 124.37875 -167.1875 124 C-174.94911958 120.69718316 -179.85136684 114.3510109 -183.125 106.75 C-185.70531859 98.76093667 -184.90237497 89.59528891 -181.47265625 82.03515625 C-179.58490626 78.83418887 -177.29878486 76.19471372 -174.7109375 73.5390625 C-173.01083881 71.62121718 -171.94538871 70.18381984 -171.125 67.75 C-171.54160293 65.30101383 -171.54160293 65.30101383 -172.5 62.75 C-175.70407065 51.91650551 -174.53617761 42.10780937 -170.125 31.75 C-164.02797193 20.69817191 -154.98650577 13.05831704 -143.125 8.75 C-130.66090302 5.75455511 -118.72662444 6.11132776 -107.4375 12.875 C-106.67050781 13.39320312 -105.90351562 13.91140625 -105.11328125 14.4453125 C-103.06036601 15.91381031 -103.06036601 15.91381031 -100.125 16.75 C-99.68671875 16.13253906 -99.2484375 15.51507813 -98.796875 14.87890625 C-87.92291033 0.35818514 -71.9160041 -8.53432645 -54.16015625 -11.81640625 C-34.70953885 -14.28368301 -15.56677723 -12.96703032 0 0 Z M-87.125 18.75 C-95.20227362 28.66223811 -97.0482202 38.0929489 -96.125 50.75 C-95.60165312 53.48303372 -94.88370627 56.06923785 -94.125 58.75 C-94.455 59.74 -94.785 60.73 -95.125 61.75 C-100.57700373 63.08271202 -100.57700373 63.08271202 -102.875 61.6875 C-107.95290702 53.81674412 -107.56830716 43.20830375 -106.25 34.3125 C-105.81838537 30.36507134 -105.81838537 30.36507134 -107.26171875 26.80859375 C-109.11242562 25.08730694 -110.89641284 23.94120942 -113.125 22.75 C-113.86363281 22.34007813 -114.60226563 21.93015625 -115.36328125 21.5078125 C-122.86550131 17.94702065 -130.80515907 17.4656384 -138.859375 19.41015625 C-148.25850776 22.78158431 -155.21220554 28.50806799 -159.96875 37.28125 C-163.5839701 45.00023346 -164.08076492 52.80035725 -161.3828125 61.0078125 C-160.69788577 62.61902109 -159.92178467 64.19107347 -159.125 65.75 C-157.91263672 65.73259766 -157.91263672 65.73259766 -156.67578125 65.71484375 C-155.60714844 65.70582031 -154.53851563 65.69679688 -153.4375 65.6875 C-152.38175781 65.67589844 -151.32601562 65.66429688 -150.23828125 65.65234375 C-147.40089738 65.74134575 -144.8811081 66.10060162 -142.125 66.75 C-141.875 72.375 -141.875 72.375 -144.125 75.75 C-146.4453125 75.9375 -146.4453125 75.9375 -149.25 75.75 C-157.17799876 75.56370238 -162.78817839 77.61027185 -168.6484375 83.015625 C-171.98642188 86.93643205 -172.92478653 91.17689417 -173.5625 96.1875 C-172.78861177 102.48916134 -170.62133055 107.73527044 -165.9375 112.125 C-159.23801521 117.26746168 -152.35965175 118.14212627 -144.125 117.75 C-144.62 116.76 -144.62 116.76 -145.125 115.75 C-146.41187011 111.88938967 -146.26257618 108.80849717 -146.125 104.75 C-143 104.1875 -143 104.1875 -139.125 104.75 C-136.64794544 107.43866224 -134.97038287 110.60760385 -133.125 113.75 C-127.27439139 122.68143543 -119.16567693 129.26832638 -108.78515625 132.3203125 C-101.23778936 133.53941728 -92.11762414 134.15145089 -85.125 130.75 C-85.805625 130.09 -86.48625 129.43 -87.1875 128.75 C-88.17003406 127.75330839 -89.14870893 126.75280761 -90.125 125.75 C-90.76050781 125.110625 -91.39601563 124.47125 -92.05078125 123.8125 C-92.69402344 123.131875 -93.33726563 122.45125 -94 121.75 C-94.61617188 121.110625 -95.23234375 120.47125 -95.8671875 119.8125 C-97.125 117.75 -97.125 117.75 -96.8828125 115.0625 C-96.125 112.75 -96.125 112.75 -95.125 111.75 C-92.5625 111.1875 -92.5625 111.1875 -89.125 111.75 C-87.44140625 113.25390625 -87.44140625 113.25390625 -85.625 115.25 C-75.44421768 126.23042231 -61.04651331 131.00955842 -46.4375 132 C-36.33941197 131.8431365 -25.90047023 128.22955852 -18.125 121.75 C-19.26503235 118.32990294 -20.34670198 117.46130558 -23.0625 115.1875 C-25.15843963 113.41869432 -27.18494888 111.69005112 -29.125 109.75 C-29.3125 106.1875 -29.3125 106.1875 -29.125 102.75 C-28.125 101.75 -28.125 101.75 -25.5 101.25 C-21.73251576 101.80814581 -21.41114795 102.19200694 -19 104.875 C-13.06253066 111.41020115 -4.30586739 115.40536215 4.45703125 115.98828125 C20.86478198 116.42371245 38.57435768 112.77959923 51.0625 101.3125 C55.70457719 96.0491347 57.49921791 90.14603863 57.22265625 83.171875 C55.3134995 69.87213133 47.10579986 60.79729008 36.875 52.75 C35.885 52.42 34.895 52.09 33.875 51.75 C33.09125 52.719375 32.3075 53.68875 31.5 54.6875 C29.96211295 56.58962346 29.08240087 57.64629957 26.875 58.75 C23.8125 58.875 23.8125 58.875 20.875 58.75 C19.875 57.75 19.875 57.75 19.77734375 55.90234375 C19.80989583 53.8515625 19.84244792 51.80078125 19.875 49.75 C20.865 49.42 21.855 49.09 22.875 48.75 C26.54075277 43.20080874 28.3241692 36.36702924 27.875 29.75 C26.62896522 25.69458247 24.36861185 23.16508269 21.125 20.4375 C14.4511338 16.97222332 8.24462376 15.8469886 0.875 17.75 C-3.91651888 19.6791435 -8.76398693 21.69510036 -12.125 25.75 C-12.125 26.41 -12.125 27.07 -12.125 27.75 C-18.27734375 27.84765625 -18.27734375 27.84765625 -20.125 27.75 C-21.125 26.75 -21.125 26.75 -21.6875 23.625 C-20.95936356 18.60894896 -19.09267866 17.30826732 -15.23828125 14.26171875 C-12.93565752 12.61455538 -10.62682419 11.0790941 -8.125 9.75 C-15.10635029 1.89598092 -23.62503057 -0.80773404 -33.9140625 -1.5078125 C-53.82570316 -2.2573999 -73.36077628 3.69300388 -87.125 18.75 Z " fill="#000000" transform="translate(216.125,45.25)"/>
</svg>
