<?xml version="1.0" encoding="UTF-8"?>
<svg version="1.1" xmlns="http://www.w3.org/2000/svg" width="512" height="512">
<path d="M0 0 C5.07020136 2.65116553 7.18782248 7.02598758 10.1171875 11.8203125 C11.44000468 13.91624982 12.76427159 16.01127273 14.08984375 18.10546875 C14.77062988 19.19102051 15.45141602 20.27657227 16.15283203 21.39501953 C19.53585711 26.73876025 23.04032913 31.99984793 26.5546875 37.2578125 C27.22814209 38.2669873 27.90159668 39.27616211 28.59545898 40.31591797 C36.45074218 52.04902783 44.69677121 63.45367003 53.2421875 74.6953125 C54.01046875 75.70980469 54.77875 76.72429687 55.5703125 77.76953125 C67.81486231 93.82569092 80.6262203 109.49923484 94.20703125 124.4453125 C96.01596293 126.44520625 97.79110551 128.46800682 99.5546875 130.5078125 C109.07885103 141.40344409 119.13452326 151.74900811 129.37988281 161.96337891 C131.50703534 164.08512259 133.62872311 166.21222741 135.75 168.33984375 C137.12728333 169.7164669 138.50487649 171.09278016 139.8828125 172.46875 C140.8143515 173.40332535 140.8143515 173.40332535 141.76470947 174.35678101 C145.54365947 178.11592174 149.44012276 181.68814336 153.47740173 185.16864014 C155.88449131 187.25095358 158.21694668 189.41071989 160.5546875 191.5703125 C165.01957776 195.64268494 169.60826905 199.50159848 174.3125 203.29296875 C176.98024462 205.48051934 179.5864221 207.72016326 182.18505859 209.98828125 C189.56247495 216.41383952 197.22541196 222.33748395 205.11181641 228.12255859 C207.27608927 229.7203406 209.42243053 231.33995098 211.56640625 232.96484375 C230.5538551 247.27820494 250.53047605 260.03462466 271.2421875 271.6953125 C276.11764875 274.44623501 276.11764875 274.44623501 277.2421875 276.6953125 C277.5546875 280.1328125 277.5546875 280.1328125 277.2421875 283.6953125 C274.4237292 286.94737976 271.36648229 287.13936159 267.2421875 287.6953125 C186.91268455 291.87044259 106.79609226 252.21014844 47.97314453 199.28125 C38.04086314 190.18109486 29.20235062 180.56261114 21.2421875 169.6953125 C20.07236328 168.10783203 20.07236328 168.10783203 18.87890625 166.48828125 C0.67625993 140.99200117 -10.8573661 111.79163033 -14.7578125 80.6953125 C-14.90029419 79.56488525 -14.90029419 79.56488525 -15.0456543 78.41162109 C-17.47234017 57.00070204 -16.13071743 35.2723781 -11.3203125 14.3203125 C-11.11510986 13.42135254 -10.90990723 12.52239258 -10.69848633 11.59619141 C-8.72385213 3.53239389 -8.72385213 3.53239389 -5.7578125 0.6953125 C-2.7578125 -0.3046875 -2.7578125 -0.3046875 0 0 Z M0.2421875 24.6953125 C-8.60555034 67.90319732 1.21632618 113.72885098 24.56445312 150.79443359 C29.89505714 158.84493989 36.00432517 166.33603672 42.2421875 173.6953125 C42.84804687 174.42492187 43.45390625 175.15453125 44.078125 175.90625 C47.44857801 179.88673976 50.99595192 183.376108 54.98046875 186.73828125 C56.61976925 188.15674334 58.21657654 189.62479882 59.78515625 191.12109375 C105.84238237 235.01839478 182.29624988 275.58686946 247.2421875 274.6953125 C243.97793865 272.02303534 240.66455808 269.57340179 237.13671875 267.26171875 C236.16202637 266.61936279 235.18733398 265.97700684 234.18310547 265.31518555 C233.15072754 264.63625244 232.11834961 263.95731934 231.0546875 263.2578125 C215.61866787 253.03037286 200.66578051 242.30618619 186.2421875 230.6953125 C185.60571289 230.18500488 184.96923828 229.67469727 184.31347656 229.14892578 C172.13152268 219.37185249 160.17877621 209.34965742 148.61328125 198.84765625 C146.96663747 197.35292689 145.31242014 195.86651535 143.65234375 194.38671875 C139.28006674 190.48783113 135.03332949 186.53119786 130.9296875 182.3515625 C129.21913221 180.67268416 127.44315062 179.12238115 125.6171875 177.5703125 C117.48162636 170.54486692 109.86708109 162.77810792 102.9140625 154.5859375 C100.94464721 152.35884171 98.85844408 150.28316296 96.7421875 148.1953125 C92.69355116 144.18743424 88.94435534 140.02152 85.2421875 135.6953125 C84.26387878 134.56826513 83.28462625 133.44203665 82.3046875 132.31640625 C71.30337185 119.67529678 60.4826958 106.96355813 50.2421875 93.6953125 C49.64245117 92.92155273 49.04271484 92.14779297 48.42480469 91.35058594 C34.68440186 73.59939617 21.85016353 55.35357222 9.5703125 36.56323242 C8.93351562 35.59619385 8.29671875 34.62915527 7.640625 33.6328125 C7.08036621 32.77558594 6.52010742 31.91835937 5.94287109 31.03515625 C4.22392572 28.67018748 2.36288712 26.70189636 0.2421875 24.6953125 Z " fill="#000000" transform="translate(126.7578125,67.3046875)"/>
<path d="M0 0 C4.47087218 1.38751205 5.16152889 2.68516742 7.33203125 6.6328125 C7.75871094 7.45523438 8.18539062 8.27765625 8.625 9.125 C18.77887135 27.54365036 31.99372166 43.2443957 48.625 56.125 C49.41132813 56.77726562 50.19765625 57.42953125 51.0078125 58.1015625 C64.68044829 69.42773934 79.91362861 77.97889285 95.625 86.125 C96.39763184 86.5257373 97.17026367 86.92647461 97.96630859 87.33935547 C133.62811967 105.56966696 173.51071788 117.71851946 212.52734375 126.07421875 C213.26419403 126.23229004 214.00104431 126.39036133 214.76022339 126.55322266 C218.33909857 127.31655799 221.92061062 128.06145093 225.50878906 128.77978516 C227.42836426 129.17689697 227.42836426 129.17689697 229.38671875 129.58203125 C230.52069092 129.80866455 231.65466309 130.03529785 232.82299805 130.26879883 C235.67821516 131.14126083 236.90239565 131.72134022 238.625 134.125 C239.0625 137.0625 239.0625 137.0625 238.625 140.125 C232.30463758 147.84664369 219.86633052 148.58670028 210.5625 150.3125 C209.66547363 150.47943359 208.76844727 150.64636719 207.84423828 150.81835938 C155.15400944 160.10820201 81.85153638 152.01390048 37.19140625 120.78125 C15.40275534 104.88872563 1.21706951 83.10363051 -5.375 57.125 C-5.6946875 55.89394531 -6.014375 54.66289062 -6.34375 53.39453125 C-8.41703582 43.82478144 -8.66086876 34.32542285 -8.6875 24.5625 C-8.69305908 23.26554199 -8.69861816 21.96858398 -8.7043457 20.63232422 C-8.65536318 14.18253968 -8.5863314 8.22649969 -6.375 2.125 C-3.375 0.125 -3.375 0.125 0 0 Z M4.625 31.125 C5.07849731 58.70588184 15.98225982 82.72729788 35.59375 102.06640625 C66.05713559 129.97036805 119.78728015 139.35114292 159.76171875 139.2578125 C160.68539749 139.25876923 161.60907623 139.25972595 162.56074524 139.26071167 C164.49598255 139.26138686 166.43122222 139.25957918 168.36645508 139.25537109 C171.31531877 139.24999486 174.26403147 139.25534814 177.21289062 139.26171875 C179.104167 139.26105821 180.99544328 139.25977755 182.88671875 139.2578125 C183.75979172 139.25983673 184.63286469 139.26186096 185.53239441 139.26394653 C190.33569518 139.24566249 194.88805386 138.93055683 199.625 138.125 C196.08992445 136.13360373 192.38153714 135.14516218 188.484375 134.12890625 C187.02244726 133.73771932 185.56070392 133.34584279 184.09912109 132.95336914 C183.32977234 132.74777374 182.56042358 132.54217834 181.76776123 132.33035278 C154.22576557 124.93076425 127.68440002 115.77072832 101.625 104.125 C100.82610352 103.77373047 100.02720703 103.42246094 99.20410156 103.06054688 C64.27084791 87.65377214 30.36482685 64.53267827 7.5234375 33.58203125 C6.58371094 32.36580078 6.58371094 32.36580078 5.625 31.125 C5.295 31.125 4.965 31.125 4.625 31.125 Z " fill="#000000" transform="translate(116.375,235.875)"/>
<path d="M0 0 C3.39570788 0.72179298 6.78172288 1.48138109 10.16845703 2.24414062 C34.53564432 7.49412667 59.35231915 10.13434444 84.23095703 11.49414062 C85.00991333 11.5385025 85.78886963 11.58286438 86.59143066 11.62857056 C99.13822352 12.32165246 111.65135508 12.55638375 124.21533203 12.45117188 C125.59790022 12.44086972 126.98046858 12.43059044 128.36303711 12.42033386 C134.01923263 12.37576163 139.675223 12.32632288 145.33105469 12.24731445 C148.85354133 12.1988516 152.37573008 12.16984309 155.89850616 12.15357018 C157.86183885 12.13897658 159.82497566 12.10301763 161.7880249 12.06660461 C163.56333588 12.06130989 163.56333588 12.06130989 165.37451172 12.0559082 C166.41242859 12.04400955 167.45034546 12.0321109 168.51971436 12.01985168 C171.95278182 12.62041243 173.10731452 13.78472087 175.23095703 16.49414062 C175.98095703 19.24414062 175.98095703 19.24414062 175.23095703 22.49414062 C161.05796967 42.56546704 128.10007763 51.7736046 105.38720703 55.89648438 C71.73155071 61.00373022 42.30512439 56.4617855 14.23095703 36.49414062 C4.41555306 29.15392548 -7.93737449 19.50951442 -13.76904297 8.49414062 C-13.76904297 4.68164062 -13.76904297 4.68164062 -12.76904297 1.49414062 C-8.40322265 -1.41640625 -4.97463291 -0.90878499 0 0 Z M14.23095703 17.49414062 C27.90466017 32.58236478 50.9354405 43.3750059 71.23852539 44.61694336 C97.6723003 45.61415835 122.78323563 39.60213831 146.23095703 27.49414062 C146.23095703 27.16414063 146.23095703 26.83414062 146.23095703 26.49414062 C144.30461426 26.47226685 144.30461426 26.47226685 142.33935547 26.44995117 C103.03757653 25.97169307 63.90857313 24.77925072 24.99462891 18.90332031 C21.41294254 18.37302823 17.82596794 17.92378827 14.23095703 17.49414062 Z " fill="#000000" transform="translate(150.76904296875,386.505859375)"/>
</svg>
