<svg xmlns="http://www.w3.org/2000/svg" width="512" height="512" transform="scale(-1 1)"><path d="M126.758 67.305c5.07 2.65 7.188 7.026 10.117 11.82q1.984 3.144 3.973 6.285l2.063 3.29c3.383 5.343 6.887 10.605 10.401 15.862l2.041 3.059C163.21 119.354 171.455 130.758 180 142l2.328 3.074c12.245 16.056 25.056 31.73 38.637 46.676 1.809 2 3.584 4.023 5.347 6.063 9.525 10.895 19.58 21.24 29.826 31.455q3.19 3.184 6.37 6.377l4.133 4.128 1.882 1.888c3.778 3.76 7.675 7.332 11.712 10.812 2.407 2.083 4.74 4.242 7.077 6.402 4.465 4.072 9.054 7.931 13.758 11.723a335 335 0 0 1 7.873 6.695c7.377 6.426 15.04 12.35 22.927 18.134a641 641 0 0 1 6.454 4.843C357.312 314.583 377.288 327.34 398 339c4.875 2.75 4.875 2.75 6 5 .313 3.438.313 3.438 0 7-2.818 3.252-5.876 3.444-10 4-80.33 4.175-160.446-35.485-219.269-88.414-9.932-9.1-18.77-18.719-26.731-29.586l-2.363-3.207C127.434 208.297 115.9 179.096 112 148l-.288-2.284c-2.427-21.41-1.085-43.139 3.725-64.091l.622-2.724c1.975-8.064 1.975-8.064 4.941-10.901 3-1 3-1 5.758-.695M127 92c-8.848 43.208.974 89.034 24.322 126.1 5.33 8.05 11.44 15.54 17.678 22.9l1.836 2.21c3.37 3.981 6.918 7.47 10.902 10.833a134 134 0 0 1 4.805 4.383C232.6 302.323 309.054 342.892 374 342a118 118 0 0 0-10.105-7.434l-2.954-1.946-3.128-2.058C342.376 320.336 327.423 309.612 313 298l-1.929-1.546c-12.182-9.777-24.134-19.8-35.7-30.302a739 739 0 0 0-4.96-4.46c-4.373-3.9-8.62-7.856-12.724-12.036-1.71-1.679-3.486-3.229-5.312-4.781-8.136-7.025-15.75-14.792-22.703-22.984-1.97-2.227-4.056-4.303-6.172-6.391-4.049-4.008-7.798-8.174-11.5-12.5l-2.937-3.379C198.06 186.98 187.24 174.268 177 161l-1.817-2.345c-13.74-17.75-26.575-35.997-38.855-54.787l-1.93-2.93-1.697-2.598c-1.72-2.365-3.58-4.333-5.701-6.34"/><path d="M116.375 235.875c4.47 1.388 5.162 2.685 7.332 6.633L125 245c10.154 18.419 23.369 34.12 40 47l2.383 1.977C181.055 305.303 196.289 313.854 212 322l2.341 1.214c35.662 18.23 75.545 30.38 114.561 38.735l2.233.48c3.58.763 7.16 1.507 10.749 2.226l3.878.802 3.436.687c2.855.872 4.08 1.452 5.802 3.856.438 2.938.438 2.938 0 6-6.32 7.722-18.759 8.462-28.062 10.188l-2.719.505c-52.69 9.29-125.992 1.196-170.653-30.037C131.778 340.764 117.592 318.98 111 293l-.969-3.73c-2.073-9.57-2.317-19.07-2.344-28.832l-.016-3.93c.049-6.45.118-12.407 2.329-18.508 3-2 3-2 6.375-2.125M121 267c.453 27.58 11.357 51.602 30.969 70.941 30.463 27.904 84.193 37.285 124.168 37.192l2.799.003q2.903 0 5.805-.006 4.424-.005 8.847.007 2.836 0 5.674-.004l2.645.006c4.804-.018 9.356-.333 14.093-1.139-3.535-1.991-7.243-2.98-11.14-3.996l-4.386-1.176c-.77-.205-1.539-.41-2.331-.623-27.542-7.4-54.084-16.56-80.143-28.205l-2.42-1.064c-34.934-15.407-68.84-38.528-91.682-69.479L122 267zm29.769 119.506c3.396.722 6.782 1.481 10.168 2.244C185.305 394 210.121 396.64 235 398l2.36.134c12.547.694 25.06.928 37.624.823l4.148-.03c5.656-.045 11.312-.095 16.968-.174q5.284-.07 10.568-.094c1.963-.014 3.926-.05 5.89-.087l3.586-.01 3.145-.036c3.433.6 4.587 1.765 6.711 4.474.75 2.75.75 2.75 0 6-14.173 20.071-47.13 29.28-69.844 33.402-33.655 5.108-63.082.566-91.156-19.402-9.815-7.34-22.168-16.985-28-28 0-3.813 0-3.813 1-7 4.366-2.91 7.794-2.403 12.769-1.494M165 404c13.674 15.088 36.704 25.88 57.008 27.123 26.433.997 51.544-5.015 74.992-17.123v-1l-3.892-.044c-39.301-.478-78.43-1.67-117.344-7.547-3.582-.53-7.169-.98-10.764-1.409"/></svg>